<svg xmlns="http://www.w3.org/2000/svg" xmlns:xlink="http://www.w3.org/1999/xlink" width="500" zoomAndPan="magnify" viewBox="0 0 375 374.999991" height="500" preserveAspectRatio="xMidYMid meet" version="1.0"><defs><g/><clipPath id="dc25b0c68f"><path d="M 96.707031 53 L 278.207031 53 L 278.207031 234.65625 L 96.707031 234.65625 Z M 96.707031 53 " clip-rule="nonzero"/></clipPath></defs><g clip-path="url(#dc25b0c68f)"><path fill="#c69c6d" d="M 272.980469 113.445312 C 269.640625 104.039062 264.777344 95.285156 258.53125 87.40625 C 252.359375 79.636719 244.992188 72.953125 236.644531 67.542969 C 228.148438 62.058594 218.894531 58.066406 209.128906 55.667969 C 207.859375 55.339844 206.585938 55.085938 205.351562 54.832031 C 193.628906 52.472656 181.214844 52.472656 169.488281 54.832031 C 168.21875 55.085938 166.949219 55.378906 165.714844 55.667969 C 155.949219 58.066406 146.691406 62.058594 138.199219 67.542969 C 129.847656 72.917969 122.515625 79.597656 116.308594 87.40625 C 110.066406 95.25 105.199219 104.039062 101.863281 113.445312 C 98.449219 123.175781 96.707031 133.417969 96.707031 143.839844 C 96.707031 185.089844 124.511719 221.1875 164.371094 231.644531 C 168.109375 232.625 171.992188 233.390625 175.839844 233.863281 C 179.617188 234.332031 183.425781 234.585938 187.238281 234.585938 C 187.3125 234.585938 187.382812 234.585938 187.457031 234.585938 C 187.53125 234.585938 187.601562 234.585938 187.675781 234.585938 C 191.484375 234.585938 195.332031 234.332031 199.074219 233.863281 C 202.921875 233.351562 206.804688 232.625 210.542969 231.644531 C 250.402344 221.1875 278.207031 185.089844 278.207031 143.839844 C 278.207031 133.417969 276.464844 123.175781 272.980469 113.445312 Z M 272.941406 143.839844 C 272.941406 147.46875 272.726562 151.027344 272.253906 154.550781 C 267.207031 158.292969 262.234375 159.417969 257.441406 159.382812 C 258.097656 157.820312 259.875 154.152344 263.394531 149.941406 C 265.9375 146.925781 269.859375 144.238281 272.90625 142.421875 C 272.90625 142.894531 272.941406 143.367188 272.941406 143.839844 Z M 210.617188 145.402344 C 205.605469 133.597656 210 119.726562 216.097656 107.886719 C 223.140625 121.25 216.386719 131.710938 210.617188 145.402344 Z M 211.015625 91.546875 C 209.816406 90.53125 208.691406 89.441406 207.640625 88.351562 C 207.859375 87.625 208.074219 86.933594 208.292969 86.207031 C 209.816406 80.761719 210.542969 75.058594 210.289062 69.394531 C 210.179688 66.636719 209.816406 63.839844 209.238281 61.152344 C 211.089844 61.625 212.9375 62.167969 214.71875 62.785156 C 214.609375 71.539062 217.839844 77.964844 223.429688 85.265625 C 221.359375 89.042969 218.894531 92.78125 216.351562 96.703125 C 214.789062 94.996094 213.011719 93.253906 211.015625 91.546875 Z M 227.023438 89.804688 C 228.65625 91.765625 230.398438 93.796875 232.289062 96.011719 C 244.375 110.210938 227.785156 120.5625 227.785156 120.5625 C 227.785156 120.5625 227.824219 111.738281 219.910156 101.023438 C 221.976562 97.539062 224.082031 94.304688 225.933594 91.511719 C 226.335938 90.964844 226.695312 90.382812 227.023438 89.804688 Z M 218.964844 64.3125 C 222.414062 65.691406 225.789062 67.253906 228.984375 69.03125 C 228.585938 73.351562 227.242188 77.457031 225.355469 81.488281 C 220.960938 75.167969 219.402344 69.03125 218.964844 64.3125 Z M 227.242188 145.402344 C 230.90625 141.839844 237.222656 140.824219 243.722656 139.917969 C 243.613281 140.207031 243.46875 140.460938 243.359375 140.753906 C 239.21875 149.941406 233.011719 154.734375 228.875 157.09375 C 222.050781 158.4375 216.714844 161.125 216.605469 161.195312 C 216.640625 161.050781 220.851562 151.574219 227.242188 145.402344 Z M 269.457031 119.617188 C 266.15625 123.9375 260.347656 130.113281 252.652344 131.890625 C 253.777344 127.390625 255.011719 122.339844 256.644531 117.222656 C 258.53125 111.410156 261.328125 107.488281 263.652344 105.019531 C 266.046875 109.703125 267.96875 114.570312 269.457031 119.617188 Z M 248.296875 145.402344 C 249.238281 143.910156 250.074219 141.660156 250.871094 138.863281 C 253.269531 138.429688 255.59375 137.847656 257.660156 137.046875 C 263.214844 134.832031 267.96875 129.496094 270.945312 125.429688 C 271.855469 129.496094 272.433594 133.671875 272.726562 137.917969 C 269.421875 139.734375 264.777344 142.421875 261 145.109375 C 255.59375 148.921875 251.707031 156.1875 250.472656 158.691406 C 247.0625 158.074219 243.722656 157.238281 240.453125 156.695312 C 240.347656 156.695312 240.273438 156.65625 240.164062 156.65625 C 242.632812 153.863281 246.046875 148.886719 248.296875 145.402344 Z M 261.292969 100.660156 C 260.636719 101.132812 260.019531 101.679688 259.332031 102.296875 C 252.289062 110.757812 250.511719 121.035156 246.554688 132.546875 C 231.015625 133.453125 224.847656 137.59375 224.738281 137.664062 C 224.773438 137.558594 226.878906 131.855469 237.296875 122.195312 C 248.765625 111.554688 253.667969 99.570312 255.699219 92.308594 C 257.769531 94.960938 259.621094 97.757812 261.292969 100.660156 Z M 251.054688 86.570312 C 248.550781 100.226562 243.578125 104.691406 243.578125 104.691406 C 237.988281 93.144531 240.671875 84.5 243.757812 79.382812 C 246.335938 81.632812 248.765625 84.03125 251.054688 86.570312 Z M 238.929688 75.496094 C 234.792969 82.722656 234.539062 91.183594 234.539062 91.183594 C 232.433594 89.476562 230.582031 87.734375 228.984375 85.992188 C 231.378906 80.507812 232.140625 75.167969 232.289062 70.957031 C 234.574219 72.371094 236.789062 73.898438 238.929688 75.496094 Z M 205.496094 60.242188 C 205.644531 61.117188 205.789062 61.949219 205.898438 62.824219 C 206.660156 68.378906 206.371094 74.117188 205.136719 79.5625 C 204.808594 81.089844 204.371094 82.578125 203.902344 84.03125 C 197.730469 75.96875 194.679688 66.707031 195.804688 58.753906 C 198.671875 59.046875 201.542969 59.445312 204.371094 60.027344 C 204.734375 60.0625 205.097656 60.171875 205.496094 60.242188 Z M 191.378906 58.429688 C 189.164062 71.609375 193.917969 80.144531 201.578125 89.730469 C 199.945312 93.21875 197.984375 96.523438 195.84375 99.679688 C 193.15625 103.601562 190.179688 107.234375 187.457031 111.082031 C 184.734375 107.234375 181.792969 103.601562 179.070312 99.679688 C 176.929688 96.523438 174.933594 93.21875 173.335938 89.730469 C 180.996094 80.109375 185.75 71.609375 183.535156 58.429688 C 186.148438 58.320312 188.761719 58.320312 191.378906 58.429688 Z M 189.054688 128.515625 C 190.25 132.074219 191.015625 135.777344 191.449219 139.554688 C 192.320312 147.105469 191.8125 154.988281 191.160156 162.976562 C 190.832031 166.972656 190.433594 171 190.105469 175.070312 C 189.742188 179.136719 189.417969 183.238281 189.164062 187.34375 C 188.835938 192.71875 187.855469 208.769531 187.421875 221.550781 C 187.019531 208.769531 186.042969 192.753906 185.679688 187.34375 C 185.425781 183.238281 185.097656 179.136719 184.734375 175.070312 C 184.371094 171 184.007812 166.972656 183.683594 162.976562 C 183.027344 154.988281 182.519531 147.105469 183.390625 139.554688 C 183.828125 135.777344 184.589844 132.074219 185.785156 128.515625 C 186.257812 127.0625 186.804688 125.644531 187.382812 124.265625 C 188.039062 125.644531 188.582031 127.0625 189.054688 128.515625 Z M 179.109375 58.71875 C 180.234375 66.636719 177.21875 75.894531 171.011719 83.992188 C 170.542969 82.539062 170.105469 81.050781 169.777344 79.527344 C 168.542969 74.078125 168.21875 68.34375 169.015625 62.785156 C 169.125 61.949219 169.269531 61.078125 169.414062 60.242188 C 169.777344 60.171875 170.179688 60.097656 170.542969 59.988281 C 173.371094 59.445312 176.238281 59.007812 179.109375 58.71875 Z M 164.296875 145.402344 C 158.527344 131.710938 151.773438 121.25 158.816406 107.886719 C 164.914062 119.761719 169.308594 133.597656 164.296875 145.402344 Z M 101.96875 143.839844 C 101.96875 143.367188 101.96875 142.894531 101.96875 142.421875 C 105.019531 144.238281 108.941406 146.925781 111.480469 149.941406 C 115.003906 154.152344 116.78125 157.820312 117.433594 159.382812 C 112.640625 159.417969 107.707031 158.292969 102.625 154.550781 C 102.222656 151.027344 101.96875 147.46875 101.96875 143.839844 Z M 124.441406 158.65625 C 123.207031 156.148438 119.285156 148.886719 113.914062 145.074219 C 110.136719 142.421875 105.492188 139.734375 102.1875 137.882812 C 102.480469 133.632812 103.09375 129.457031 103.96875 125.390625 C 106.980469 129.457031 111.734375 134.796875 117.253906 137.011719 C 119.320312 137.847656 121.609375 138.390625 124.039062 138.828125 C 124.839844 141.625 125.675781 143.875 126.617188 145.363281 C 128.867188 148.851562 132.28125 153.824219 134.75 156.621094 C 134.640625 156.621094 134.566406 156.65625 134.457031 156.65625 C 131.226562 157.203125 127.886719 158.039062 124.441406 158.65625 Z M 111.226562 105.054688 C 113.585938 107.523438 116.34375 111.410156 118.234375 117.257812 C 119.902344 122.378906 121.136719 127.460938 122.226562 131.929688 C 114.53125 130.113281 108.722656 123.976562 105.417969 119.652344 C 106.945312 114.570312 108.867188 109.703125 111.226562 105.054688 Z M 146.039062 157.09375 C 141.898438 154.769531 135.691406 149.941406 131.554688 140.753906 C 131.445312 140.460938 131.300781 140.171875 131.191406 139.917969 C 137.691406 140.824219 144.003906 141.804688 147.671875 145.402344 C 154.0625 151.574219 158.234375 161.050781 158.308594 161.195312 C 158.199219 161.125 152.898438 158.4375 146.039062 157.09375 Z M 148.980469 91.546875 C 150.832031 94.34375 152.9375 97.539062 155.003906 101.0625 C 147.089844 111.773438 147.128906 120.597656 147.128906 120.597656 C 147.128906 120.597656 130.539062 110.210938 142.625 96.050781 C 144.515625 93.835938 146.257812 91.800781 147.890625 89.839844 C 148.214844 90.382812 148.578125 90.964844 148.980469 91.546875 Z M 158.597656 96.703125 C 156.058594 92.816406 153.589844 89.042969 151.519531 85.265625 C 157.074219 77.929688 160.304688 71.5 160.230469 62.785156 C 162.046875 62.167969 163.863281 61.625 165.714844 61.152344 C 165.132812 63.875 164.804688 66.636719 164.660156 69.394531 C 164.40625 75.058594 165.132812 80.761719 166.65625 86.207031 C 166.875 86.933594 167.09375 87.660156 167.308594 88.351562 C 166.257812 89.441406 165.132812 90.53125 163.933594 91.546875 C 161.902344 93.253906 160.121094 94.996094 158.597656 96.703125 Z M 149.558594 81.488281 C 147.671875 77.457031 146.328125 73.351562 145.929688 69.03125 C 149.125 67.253906 152.5 65.691406 155.949219 64.3125 C 155.511719 69.066406 153.953125 75.167969 149.558594 81.488281 Z M 142.625 70.957031 C 142.773438 75.132812 143.535156 80.507812 145.929688 85.992188 C 144.332031 87.734375 142.480469 89.476562 140.375 91.183594 C 140.375 91.183594 140.121094 82.722656 135.984375 75.53125 C 138.125 73.898438 140.339844 72.371094 142.625 70.957031 Z M 131.191406 79.382812 C 134.277344 84.5 136.925781 93.179688 131.375 104.691406 C 131.375 104.691406 126.398438 100.226562 123.894531 86.570312 C 126.144531 84.03125 128.578125 81.632812 131.191406 79.382812 Z M 119.175781 92.273438 C 121.210938 99.535156 126.109375 111.519531 137.582031 122.160156 C 148 131.820312 150.105469 137.519531 150.140625 137.628906 C 150.03125 137.558594 143.859375 133.417969 128.324219 132.507812 C 124.367188 120.996094 122.589844 110.71875 115.546875 102.257812 C 114.894531 101.640625 114.238281 101.097656 113.585938 100.625 C 115.292969 97.757812 117.144531 94.960938 119.175781 92.273438 Z M 103.785156 161.34375 C 106.617188 163.265625 110.355469 165.011719 114.820312 165.519531 C 125.675781 166.71875 138.34375 160.90625 149.085938 166.71875 C 159.289062 172.238281 166.113281 192.0625 156.929688 223.765625 C 129.632812 213.308594 109.703125 189.632812 103.785156 161.34375 Z M 174.425781 228.34375 C 175.515625 217.628906 176.855469 190.902344 168.726562 158.363281 C 171.121094 153.609375 176.855469 140.027344 173.226562 126.117188 C 170.902344 117.257812 166.800781 109.703125 162.484375 102.769531 C 164.949219 99.753906 167.308594 96.957031 169.5625 94.304688 C 170.105469 95.542969 170.6875 96.738281 171.304688 97.9375 C 171.992188 99.28125 172.71875 100.589844 173.519531 101.894531 C 176.167969 106.363281 179.542969 110.25 182.339844 114.605469 C 182.808594 115.367188 183.28125 116.132812 183.753906 116.894531 C 183.5 117.367188 183.246094 117.839844 182.992188 118.308594 C 182.59375 119.109375 182.191406 119.871094 181.792969 120.707031 C 179.109375 126.300781 177.328125 132.292969 176.421875 138.464844 C 175.804688 142.675781 175.585938 146.925781 175.550781 151.101562 C 175.550781 155.277344 175.695312 159.382812 175.914062 163.484375 C 176.132812 167.550781 179.035156 191.082031 178.019531 211.746094 C 177.726562 217.375 177.183594 223.003906 176.496094 228.632812 C 175.804688 228.558594 175.113281 228.449219 174.425781 228.34375 Z M 198.417969 228.632812 C 197.765625 223.003906 197.183594 217.375 196.894531 211.746094 C 195.84375 191.082031 198.746094 167.550781 199 163.484375 C 199.21875 159.417969 199.398438 155.277344 199.363281 151.101562 C 199.363281 146.925781 199.109375 142.714844 198.492188 138.464844 C 197.585938 132.253906 195.804688 126.300781 193.121094 120.707031 C 192.71875 119.90625 192.320312 119.109375 191.921875 118.308594 C 191.667969 117.839844 191.414062 117.367188 191.160156 116.894531 C 191.632812 116.132812 192.101562 115.367188 192.574219 114.605469 C 195.371094 110.25 198.710938 106.363281 201.394531 101.894531 C 202.160156 100.589844 202.921875 99.28125 203.609375 97.9375 C 204.226562 96.738281 204.808594 95.542969 205.351562 94.304688 C 207.566406 96.957031 209.960938 99.753906 212.429688 102.769531 C 208.074219 109.703125 203.972656 117.257812 201.6875 126.117188 C 198.054688 140.027344 203.828125 153.570312 206.1875 158.363281 C 198.054688 190.902344 199.398438 217.59375 200.488281 228.34375 C 199.800781 228.449219 199.109375 228.558594 198.417969 228.632812 Z M 217.984375 223.730469 C 208.835938 191.992188 215.625 172.199219 225.824219 166.679688 C 236.570312 160.871094 249.238281 166.679688 260.09375 165.480469 C 264.558594 165.011719 268.261719 163.230469 271.128906 161.304688 C 265.210938 189.632812 245.28125 213.308594 217.984375 223.730469 Z M 217.984375 223.730469 " fill-opacity="1" fill-rule="nonzero"/></g><g fill="#c69c6d" fill-opacity="1"><g transform="translate(37.248234, 297.502709)"><g><path d="M 37.3125 -12.609375 L 11 -12.609375 L 5.328125 0 L 0.140625 0 L 21.71875 -47.234375 L 26.65625 -47.234375 L 48.234375 0 L 42.984375 0 Z M 35.484375 -16.671875 L 24.15625 -42.03125 L 12.8125 -16.671875 Z M 35.484375 -16.671875 "/></g></g></g><g fill="#c69c6d" fill-opacity="1"><g transform="translate(85.616464, 297.502709)"><g><path d="M 39.9375 0 L 29.140625 -15.1875 C 27.929688 -15.050781 26.675781 -14.984375 25.375 -14.984375 L 12.6875 -14.984375 L 12.6875 0 L 7.6875 0 L 7.6875 -47.234375 L 25.375 -47.234375 C 31.394531 -47.234375 36.113281 -45.789062 39.53125 -42.90625 C 42.957031 -40.03125 44.671875 -36.070312 44.671875 -31.03125 C 44.671875 -27.34375 43.734375 -24.226562 41.859375 -21.6875 C 39.992188 -19.144531 37.332031 -17.3125 33.875 -16.1875 L 45.40625 0 Z M 25.234375 -19.234375 C 29.910156 -19.234375 33.484375 -20.265625 35.953125 -22.328125 C 38.429688 -24.398438 39.671875 -27.300781 39.671875 -31.03125 C 39.671875 -34.851562 38.429688 -37.785156 35.953125 -39.828125 C 33.484375 -41.878906 29.910156 -42.90625 25.234375 -42.90625 L 12.6875 -42.90625 L 12.6875 -19.234375 Z M 25.234375 -19.234375 "/></g></g></g><g fill="#c69c6d" fill-opacity="1"><g transform="translate(134.389441, 297.502709)"><g><path d="M 7.6875 -47.234375 L 12.6875 -47.234375 L 12.6875 0 L 7.6875 0 Z M 7.6875 -47.234375 "/></g></g></g><g fill="#c69c6d" fill-opacity="1"><g transform="translate(154.762117, 297.502709)"><g/></g></g><g fill="#c69c6d" fill-opacity="1"><g transform="translate(172.436411, 297.502709)"><g><path d="M 56.734375 -47.234375 L 56.734375 0 L 51.953125 0 L 51.953125 -37.78125 L 33.390625 -6 L 31.03125 -6 L 12.484375 -37.578125 L 12.484375 0 L 7.6875 0 L 7.6875 -47.234375 L 11.8125 -47.234375 L 32.3125 -12.21875 L 52.625 -47.234375 Z M 56.734375 -47.234375 "/></g></g></g><g fill="#c69c6d" fill-opacity="1"><g transform="translate(236.85991, 297.502709)"><g><path d="M 41.09375 -4.3125 L 41.09375 0 L 7.6875 0 L 7.6875 -47.234375 L 40.078125 -47.234375 L 40.078125 -42.90625 L 12.6875 -42.90625 L 12.6875 -26.109375 L 37.109375 -26.109375 L 37.109375 -21.859375 L 12.6875 -21.859375 L 12.6875 -4.3125 Z M 41.09375 -4.3125 "/></g></g></g><g fill="#c69c6d" fill-opacity="1"><g transform="translate(281.990091, 297.502709)"><g><path d="M 7.6875 -47.234375 L 26.921875 -47.234375 C 31.910156 -47.234375 36.316406 -46.226562 40.140625 -44.21875 C 43.960938 -42.21875 46.929688 -39.429688 49.046875 -35.859375 C 51.160156 -32.285156 52.21875 -28.203125 52.21875 -23.609375 C 52.21875 -19.023438 51.160156 -14.941406 49.046875 -11.359375 C 46.929688 -7.785156 43.960938 -5 40.140625 -3 C 36.316406 -1 31.910156 0 26.921875 0 L 7.6875 0 Z M 26.65625 -4.3125 C 30.789062 -4.3125 34.410156 -5.132812 37.515625 -6.78125 C 40.617188 -8.425781 43.023438 -10.695312 44.734375 -13.59375 C 46.441406 -16.5 47.296875 -19.835938 47.296875 -23.609375 C 47.296875 -27.390625 46.441406 -30.726562 44.734375 -33.625 C 43.023438 -36.53125 40.617188 -38.800781 37.515625 -40.4375 C 34.410156 -42.082031 30.789062 -42.90625 26.65625 -42.90625 L 12.6875 -42.90625 L 12.6875 -4.3125 Z M 26.65625 -4.3125 "/></g></g></g><g fill="#c69c6d" fill-opacity="1"><g transform="translate(21.601818, 318.233723)"><g><path d="M 5.171875 -9.640625 C 6.398438 -9.640625 7.363281 -9.34375 8.0625 -8.75 C 8.757812 -8.164062 9.109375 -7.359375 9.109375 -6.328125 C 9.109375 -5.304688 8.757812 -4.503906 8.0625 -3.921875 C 7.363281 -3.335938 6.398438 -3.046875 5.171875 -3.046875 L 2.59375 -3.046875 L 2.59375 0 L 1.5625 0 L 1.5625 -9.640625 Z M 5.140625 -3.9375 C 6.097656 -3.9375 6.828125 -4.144531 7.328125 -4.5625 C 7.835938 -4.976562 8.09375 -5.566406 8.09375 -6.328125 C 8.09375 -7.109375 7.835938 -7.707031 7.328125 -8.125 C 6.828125 -8.539062 6.097656 -8.75 5.140625 -8.75 L 2.59375 -8.75 L 2.59375 -3.9375 Z M 5.140625 -3.9375 "/></g></g></g><g fill="#c69c6d" fill-opacity="1"><g transform="translate(35.166702, 318.233723)"><g><path d="M 8.15625 0 L 5.953125 -3.09375 C 5.703125 -3.070312 5.441406 -3.0625 5.171875 -3.0625 L 2.59375 -3.0625 L 2.59375 0 L 1.5625 0 L 1.5625 -9.640625 L 5.171875 -9.640625 C 6.398438 -9.640625 7.363281 -9.34375 8.0625 -8.75 C 8.757812 -8.164062 9.109375 -7.359375 9.109375 -6.328125 C 9.109375 -5.578125 8.914062 -4.941406 8.53125 -4.421875 C 8.15625 -3.898438 7.613281 -3.523438 6.90625 -3.296875 L 9.265625 0 Z M 5.140625 -3.921875 C 6.097656 -3.921875 6.828125 -4.128906 7.328125 -4.546875 C 7.835938 -4.972656 8.09375 -5.566406 8.09375 -6.328125 C 8.09375 -7.109375 7.835938 -7.707031 7.328125 -8.125 C 6.828125 -8.539062 6.097656 -8.75 5.140625 -8.75 L 2.59375 -8.75 L 2.59375 -3.921875 Z M 5.140625 -3.921875 "/></g></g></g><g fill="#c69c6d" fill-opacity="1"><g transform="translate(48.80044, 318.233723)"><g><path d="M 8.390625 -0.875 L 8.390625 0 L 1.5625 0 L 1.5625 -9.640625 L 8.171875 -9.640625 L 8.171875 -8.75 L 2.59375 -8.75 L 2.59375 -5.328125 L 7.578125 -5.328125 L 7.578125 -4.453125 L 2.59375 -4.453125 L 2.59375 -0.875 Z M 8.390625 -0.875 "/></g></g></g><g fill="#c69c6d" fill-opacity="1"><g transform="translate(61.690527, 318.233723)"><g><path d="M 4.21875 0.078125 C 3.507812 0.078125 2.828125 -0.0351562 2.171875 -0.265625 C 1.515625 -0.492188 1.003906 -0.796875 0.640625 -1.171875 L 1.046875 -1.953125 C 1.390625 -1.609375 1.847656 -1.328125 2.421875 -1.109375 C 3.003906 -0.890625 3.601562 -0.78125 4.21875 -0.78125 C 5.082031 -0.78125 5.726562 -0.9375 6.15625 -1.25 C 6.59375 -1.570312 6.8125 -1.984375 6.8125 -2.484375 C 6.8125 -2.867188 6.691406 -3.175781 6.453125 -3.40625 C 6.222656 -3.644531 5.9375 -3.820312 5.59375 -3.9375 C 5.257812 -4.0625 4.789062 -4.195312 4.1875 -4.34375 C 3.457031 -4.53125 2.875 -4.707031 2.4375 -4.875 C 2.007812 -5.050781 1.640625 -5.3125 1.328125 -5.65625 C 1.023438 -6.007812 0.875 -6.484375 0.875 -7.078125 C 0.875 -7.566406 1.003906 -8.007812 1.265625 -8.40625 C 1.523438 -8.800781 1.921875 -9.117188 2.453125 -9.359375 C 2.984375 -9.597656 3.644531 -9.71875 4.4375 -9.71875 C 4.988281 -9.71875 5.523438 -9.640625 6.046875 -9.484375 C 6.578125 -9.335938 7.035156 -9.128906 7.421875 -8.859375 L 7.078125 -8.046875 C 6.671875 -8.316406 6.238281 -8.515625 5.78125 -8.640625 C 5.320312 -8.773438 4.875 -8.84375 4.4375 -8.84375 C 3.59375 -8.84375 2.957031 -8.679688 2.53125 -8.359375 C 2.101562 -8.035156 1.890625 -7.617188 1.890625 -7.109375 C 1.890625 -6.722656 2.003906 -6.410156 2.234375 -6.171875 C 2.472656 -5.941406 2.765625 -5.765625 3.109375 -5.640625 C 3.460938 -5.515625 3.941406 -5.378906 4.546875 -5.234375 C 5.253906 -5.054688 5.820312 -4.878906 6.25 -4.703125 C 6.6875 -4.535156 7.054688 -4.28125 7.359375 -3.9375 C 7.660156 -3.59375 7.8125 -3.128906 7.8125 -2.546875 C 7.8125 -2.054688 7.679688 -1.613281 7.421875 -1.21875 C 7.160156 -0.820312 6.757812 -0.503906 6.21875 -0.265625 C 5.675781 -0.0351562 5.007812 0.078125 4.21875 0.078125 Z M 4.21875 0.078125 "/></g></g></g><g fill="#c69c6d" fill-opacity="1"><g transform="translate(73.836952, 318.233723)"><g><path d="M 5.75 0.078125 C 4.800781 0.078125 3.941406 -0.128906 3.171875 -0.546875 C 2.410156 -0.972656 1.8125 -1.554688 1.375 -2.296875 C 0.9375 -3.046875 0.71875 -3.882812 0.71875 -4.8125 C 0.71875 -5.738281 0.9375 -6.578125 1.375 -7.328125 C 1.8125 -8.078125 2.414062 -8.660156 3.1875 -9.078125 C 3.957031 -9.503906 4.816406 -9.71875 5.765625 -9.71875 C 6.484375 -9.71875 7.144531 -9.597656 7.75 -9.359375 C 8.351562 -9.117188 8.867188 -8.769531 9.296875 -8.3125 L 8.640625 -7.671875 C 7.890625 -8.429688 6.941406 -8.8125 5.796875 -8.8125 C 5.035156 -8.8125 4.34375 -8.632812 3.71875 -8.28125 C 3.09375 -7.9375 2.601562 -7.460938 2.25 -6.859375 C 1.894531 -6.253906 1.71875 -5.570312 1.71875 -4.8125 C 1.71875 -4.0625 1.894531 -3.382812 2.25 -2.78125 C 2.601562 -2.175781 3.09375 -1.695312 3.71875 -1.34375 C 4.34375 -1 5.035156 -0.828125 5.796875 -0.828125 C 6.953125 -0.828125 7.898438 -1.210938 8.640625 -1.984375 L 9.296875 -1.328125 C 8.867188 -0.867188 8.347656 -0.519531 7.734375 -0.28125 C 7.128906 -0.0390625 6.46875 0.078125 5.75 0.078125 Z M 5.75 0.078125 "/></g></g></g><g fill="#c69c6d" fill-opacity="1"><g transform="translate(87.41562, 318.233723)"><g><path d="M 8.15625 0 L 5.953125 -3.09375 C 5.703125 -3.070312 5.441406 -3.0625 5.171875 -3.0625 L 2.59375 -3.0625 L 2.59375 0 L 1.5625 0 L 1.5625 -9.640625 L 5.171875 -9.640625 C 6.398438 -9.640625 7.363281 -9.34375 8.0625 -8.75 C 8.757812 -8.164062 9.109375 -7.359375 9.109375 -6.328125 C 9.109375 -5.578125 8.914062 -4.941406 8.53125 -4.421875 C 8.15625 -3.898438 7.613281 -3.523438 6.90625 -3.296875 L 9.265625 0 Z M 5.140625 -3.921875 C 6.097656 -3.921875 6.828125 -4.128906 7.328125 -4.546875 C 7.835938 -4.972656 8.09375 -5.566406 8.09375 -6.328125 C 8.09375 -7.109375 7.835938 -7.707031 7.328125 -8.125 C 6.828125 -8.539062 6.097656 -8.75 5.140625 -8.75 L 2.59375 -8.75 L 2.59375 -3.921875 Z M 5.140625 -3.921875 "/></g></g></g><g fill="#c69c6d" fill-opacity="1"><g transform="translate(101.04936, 318.233723)"><g><path d="M 1.5625 -9.640625 L 2.59375 -9.640625 L 2.59375 0 L 1.5625 0 Z M 1.5625 -9.640625 "/></g></g></g><g fill="#c69c6d" fill-opacity="1"><g transform="translate(108.885309, 318.233723)"><g><path d="M 5.75 0.078125 C 4.800781 0.078125 3.941406 -0.128906 3.171875 -0.546875 C 2.410156 -0.972656 1.8125 -1.554688 1.375 -2.296875 C 0.9375 -3.046875 0.71875 -3.882812 0.71875 -4.8125 C 0.71875 -5.738281 0.9375 -6.578125 1.375 -7.328125 C 1.8125 -8.078125 2.414062 -8.660156 3.1875 -9.078125 C 3.957031 -9.503906 4.816406 -9.71875 5.765625 -9.71875 C 6.484375 -9.71875 7.144531 -9.597656 7.75 -9.359375 C 8.351562 -9.117188 8.867188 -8.769531 9.296875 -8.3125 L 8.640625 -7.671875 C 7.890625 -8.429688 6.941406 -8.8125 5.796875 -8.8125 C 5.035156 -8.8125 4.34375 -8.632812 3.71875 -8.28125 C 3.09375 -7.9375 2.601562 -7.460938 2.25 -6.859375 C 1.894531 -6.253906 1.71875 -5.570312 1.71875 -4.8125 C 1.71875 -4.0625 1.894531 -3.382812 2.25 -2.78125 C 2.601562 -2.175781 3.09375 -1.695312 3.71875 -1.34375 C 4.34375 -1 5.035156 -0.828125 5.796875 -0.828125 C 6.953125 -0.828125 7.898438 -1.210938 8.640625 -1.984375 L 9.296875 -1.328125 C 8.867188 -0.867188 8.347656 -0.519531 7.734375 -0.28125 C 7.128906 -0.0390625 6.46875 0.078125 5.75 0.078125 Z M 5.25 3.03125 C 4.800781 3.03125 4.414062 2.925781 4.09375 2.71875 L 4.328125 2.1875 C 4.597656 2.363281 4.898438 2.453125 5.234375 2.453125 C 5.515625 2.453125 5.726562 2.394531 5.875 2.28125 C 6.019531 2.175781 6.09375 2.015625 6.09375 1.796875 C 6.09375 1.609375 6.019531 1.457031 5.875 1.34375 C 5.738281 1.226562 5.523438 1.171875 5.234375 1.171875 L 4.921875 1.171875 L 5.25 -0.078125 L 5.84375 -0.078125 L 5.640625 0.71875 C 6.015625 0.75 6.300781 0.863281 6.5 1.0625 C 6.707031 1.257812 6.8125 1.515625 6.8125 1.828125 C 6.8125 2.191406 6.664062 2.484375 6.375 2.703125 C 6.09375 2.921875 5.71875 3.03125 5.25 3.03125 Z M 5.25 3.03125 "/></g></g></g><g fill="#c69c6d" fill-opacity="1"><g transform="translate(122.463977, 318.233723)"><g><path d="M 7.609375 -2.578125 L 2.25 -2.578125 L 1.09375 0 L 0.03125 0 L 4.4375 -9.640625 L 5.4375 -9.640625 L 9.84375 0 L 8.765625 0 Z M 7.234375 -3.40625 L 4.921875 -8.578125 L 2.609375 -3.40625 Z M 5.890625 -10.5 C 5.671875 -10.5 5.476562 -10.546875 5.3125 -10.640625 C 5.15625 -10.742188 4.976562 -10.878906 4.78125 -11.046875 C 4.613281 -11.191406 4.484375 -11.289062 4.390625 -11.34375 C 4.296875 -11.40625 4.191406 -11.4375 4.078125 -11.4375 C 3.867188 -11.4375 3.695312 -11.359375 3.5625 -11.203125 C 3.4375 -11.046875 3.367188 -10.832031 3.359375 -10.5625 L 2.78125 -10.5625 C 2.789062 -11.019531 2.90625 -11.382812 3.125 -11.65625 C 3.351562 -11.9375 3.648438 -12.078125 4.015625 -12.078125 C 4.222656 -12.078125 4.40625 -12.03125 4.5625 -11.9375 C 4.726562 -11.84375 4.914062 -11.703125 5.125 -11.515625 C 5.269531 -11.390625 5.394531 -11.296875 5.5 -11.234375 C 5.601562 -11.171875 5.707031 -11.140625 5.8125 -11.140625 C 6.019531 -11.140625 6.1875 -11.210938 6.3125 -11.359375 C 6.4375 -11.515625 6.507812 -11.722656 6.53125 -11.984375 L 7.125 -11.984375 C 7.101562 -11.535156 6.984375 -11.175781 6.765625 -10.90625 C 6.546875 -10.632812 6.253906 -10.5 5.890625 -10.5 Z M 5.890625 -10.5 "/></g></g></g><g fill="#c69c6d" fill-opacity="1"><g transform="translate(136.0151, 318.233723)"><g><path d="M 5.78125 0.078125 C 4.820312 0.078125 3.957031 -0.132812 3.1875 -0.5625 C 2.414062 -0.988281 1.8125 -1.570312 1.375 -2.3125 C 0.9375 -3.050781 0.71875 -3.882812 0.71875 -4.8125 C 0.71875 -5.738281 0.9375 -6.570312 1.375 -7.3125 C 1.8125 -8.0625 2.414062 -8.648438 3.1875 -9.078125 C 3.957031 -9.503906 4.820312 -9.71875 5.78125 -9.71875 C 6.738281 -9.71875 7.597656 -9.503906 8.359375 -9.078125 C 9.128906 -8.660156 9.734375 -8.078125 10.171875 -7.328125 C 10.609375 -6.578125 10.828125 -5.738281 10.828125 -4.8125 C 10.828125 -3.882812 10.609375 -3.046875 10.171875 -2.296875 C 9.734375 -1.554688 9.128906 -0.972656 8.359375 -0.546875 C 7.597656 -0.128906 6.738281 0.078125 5.78125 0.078125 Z M 5.78125 -0.828125 C 6.539062 -0.828125 7.226562 -1 7.84375 -1.34375 C 8.457031 -1.6875 8.9375 -2.160156 9.28125 -2.765625 C 9.632812 -3.378906 9.8125 -4.0625 9.8125 -4.8125 C 9.8125 -5.570312 9.632812 -6.253906 9.28125 -6.859375 C 8.9375 -7.472656 8.457031 -7.953125 7.84375 -8.296875 C 7.226562 -8.640625 6.539062 -8.8125 5.78125 -8.8125 C 5.019531 -8.8125 4.328125 -8.640625 3.703125 -8.296875 C 3.085938 -7.953125 2.601562 -7.472656 2.25 -6.859375 C 1.894531 -6.253906 1.71875 -5.570312 1.71875 -4.8125 C 1.71875 -4.0625 1.894531 -3.378906 2.25 -2.765625 C 2.601562 -2.160156 3.085938 -1.6875 3.703125 -1.34375 C 4.328125 -1 5.019531 -0.828125 5.78125 -0.828125 Z M 5.78125 -0.828125 "/></g></g></g><g fill="#c69c6d" fill-opacity="1"><g transform="translate(151.246337, 318.233723)"><g/></g></g><g fill="#c69c6d" fill-opacity="1"><g transform="translate(158.531435, 318.233723)"><g><path d="M 1.5625 -9.640625 L 5.5 -9.640625 C 6.507812 -9.640625 7.40625 -9.429688 8.1875 -9.015625 C 8.96875 -8.609375 9.570312 -8.039062 10 -7.3125 C 10.4375 -6.582031 10.65625 -5.75 10.65625 -4.8125 C 10.65625 -3.875 10.4375 -3.039062 10 -2.3125 C 9.570312 -1.582031 8.96875 -1.015625 8.1875 -0.609375 C 7.40625 -0.203125 6.507812 0 5.5 0 L 1.5625 0 Z M 5.4375 -0.875 C 6.28125 -0.875 7.019531 -1.039062 7.65625 -1.375 C 8.289062 -1.71875 8.78125 -2.179688 9.125 -2.765625 C 9.476562 -3.359375 9.65625 -4.039062 9.65625 -4.8125 C 9.65625 -5.582031 9.476562 -6.265625 9.125 -6.859375 C 8.78125 -7.453125 8.289062 -7.914062 7.65625 -8.25 C 7.019531 -8.582031 6.28125 -8.75 5.4375 -8.75 L 2.59375 -8.75 L 2.59375 -0.875 Z M 5.4375 -0.875 "/></g></g></g><g fill="#c69c6d" fill-opacity="1"><g transform="translate(173.583629, 318.233723)"><g><path d="M 8.390625 -0.875 L 8.390625 0 L 1.5625 0 L 1.5625 -9.640625 L 8.171875 -9.640625 L 8.171875 -8.75 L 2.59375 -8.75 L 2.59375 -5.328125 L 7.578125 -5.328125 L 7.578125 -4.453125 L 2.59375 -4.453125 L 2.59375 -0.875 Z M 8.390625 -0.875 "/></g></g></g><g fill="#c69c6d" fill-opacity="1"><g transform="translate(186.473711, 318.233723)"><g/></g></g><g fill="#c69c6d" fill-opacity="1"><g transform="translate(193.758801, 318.233723)"><g><path d="M 11.578125 -9.640625 L 11.578125 0 L 10.59375 0 L 10.59375 -7.703125 L 6.8125 -1.21875 L 6.328125 -1.21875 L 2.546875 -7.671875 L 2.546875 0 L 1.5625 0 L 1.5625 -9.640625 L 2.40625 -9.640625 L 6.59375 -2.484375 L 10.734375 -9.640625 Z M 11.578125 -9.640625 "/></g></g></g><g fill="#c69c6d" fill-opacity="1"><g transform="translate(210.587526, 318.233723)"><g><path d="M 8.390625 -0.875 L 8.390625 0 L 1.5625 0 L 1.5625 -9.640625 L 8.171875 -9.640625 L 8.171875 -8.75 L 2.59375 -8.75 L 2.59375 -5.328125 L 7.578125 -5.328125 L 7.578125 -4.453125 L 2.59375 -4.453125 L 2.59375 -0.875 Z M 8.390625 -0.875 "/></g></g></g><g fill="#c69c6d" fill-opacity="1"><g transform="translate(223.477609, 318.233723)"><g><path d="M 1.5625 -9.640625 L 5.5 -9.640625 C 6.507812 -9.640625 7.40625 -9.429688 8.1875 -9.015625 C 8.96875 -8.609375 9.570312 -8.039062 10 -7.3125 C 10.4375 -6.582031 10.65625 -5.75 10.65625 -4.8125 C 10.65625 -3.875 10.4375 -3.039062 10 -2.3125 C 9.570312 -1.582031 8.96875 -1.015625 8.1875 -0.609375 C 7.40625 -0.203125 6.507812 0 5.5 0 L 1.5625 0 Z M 5.4375 -0.875 C 6.28125 -0.875 7.019531 -1.039062 7.65625 -1.375 C 8.289062 -1.71875 8.78125 -2.179688 9.125 -2.765625 C 9.476562 -3.359375 9.65625 -4.039062 9.65625 -4.8125 C 9.65625 -5.582031 9.476562 -6.265625 9.125 -6.859375 C 8.78125 -7.453125 8.289062 -7.914062 7.65625 -8.25 C 7.019531 -8.582031 6.28125 -8.75 5.4375 -8.75 L 2.59375 -8.75 L 2.59375 -0.875 Z M 5.4375 -0.875 "/></g></g></g><g fill="#c69c6d" fill-opacity="1"><g transform="translate(238.529802, 318.233723)"><g><path d="M 1.5625 -9.640625 L 2.59375 -9.640625 L 2.59375 0 L 1.5625 0 Z M 1.5625 -9.640625 "/></g></g></g><g fill="#c69c6d" fill-opacity="1"><g transform="translate(246.365743, 318.233723)"><g><path d="M 5.75 0.078125 C 4.800781 0.078125 3.941406 -0.128906 3.171875 -0.546875 C 2.410156 -0.972656 1.8125 -1.554688 1.375 -2.296875 C 0.9375 -3.046875 0.71875 -3.882812 0.71875 -4.8125 C 0.71875 -5.738281 0.9375 -6.578125 1.375 -7.328125 C 1.8125 -8.078125 2.414062 -8.660156 3.1875 -9.078125 C 3.957031 -9.503906 4.816406 -9.71875 5.765625 -9.71875 C 6.484375 -9.71875 7.144531 -9.597656 7.75 -9.359375 C 8.351562 -9.117188 8.867188 -8.769531 9.296875 -8.3125 L 8.640625 -7.671875 C 7.890625 -8.429688 6.941406 -8.8125 5.796875 -8.8125 C 5.035156 -8.8125 4.34375 -8.632812 3.71875 -8.28125 C 3.09375 -7.9375 2.601562 -7.460938 2.25 -6.859375 C 1.894531 -6.253906 1.71875 -5.570312 1.71875 -4.8125 C 1.71875 -4.0625 1.894531 -3.382812 2.25 -2.78125 C 2.601562 -2.175781 3.09375 -1.695312 3.71875 -1.34375 C 4.34375 -1 5.035156 -0.828125 5.796875 -0.828125 C 6.953125 -0.828125 7.898438 -1.210938 8.640625 -1.984375 L 9.296875 -1.328125 C 8.867188 -0.867188 8.347656 -0.519531 7.734375 -0.28125 C 7.128906 -0.0390625 6.46875 0.078125 5.75 0.078125 Z M 5.75 0.078125 "/></g></g></g><g fill="#c69c6d" fill-opacity="1"><g transform="translate(259.944402, 318.233723)"><g><path d="M 7.609375 -2.578125 L 2.25 -2.578125 L 1.09375 0 L 0.03125 0 L 4.4375 -9.640625 L 5.4375 -9.640625 L 9.84375 0 L 8.765625 0 Z M 7.234375 -3.40625 L 4.921875 -8.578125 L 2.609375 -3.40625 Z M 7.234375 -3.40625 "/></g></g></g><g fill="#c69c6d" fill-opacity="1"><g transform="translate(273.495516, 318.233723)"><g><path d="M 11.578125 -9.640625 L 11.578125 0 L 10.59375 0 L 10.59375 -7.703125 L 6.8125 -1.21875 L 6.328125 -1.21875 L 2.546875 -7.671875 L 2.546875 0 L 1.5625 0 L 1.5625 -9.640625 L 2.40625 -9.640625 L 6.59375 -2.484375 L 10.734375 -9.640625 Z M 11.578125 -9.640625 "/></g></g></g><g fill="#c69c6d" fill-opacity="1"><g transform="translate(290.32424, 318.233723)"><g><path d="M 8.390625 -0.875 L 8.390625 0 L 1.5625 0 L 1.5625 -9.640625 L 8.171875 -9.640625 L 8.171875 -8.75 L 2.59375 -8.75 L 2.59375 -5.328125 L 7.578125 -5.328125 L 7.578125 -4.453125 L 2.59375 -4.453125 L 2.59375 -0.875 Z M 8.390625 -0.875 "/></g></g></g><g fill="#c69c6d" fill-opacity="1"><g transform="translate(303.214323, 318.233723)"><g><path d="M 9.625 -9.640625 L 9.625 0 L 8.78125 0 L 2.59375 -7.8125 L 2.59375 0 L 1.5625 0 L 1.5625 -9.640625 L 2.40625 -9.640625 L 8.625 -1.8125 L 8.625 -9.640625 Z M 9.625 -9.640625 "/></g></g></g><g fill="#c69c6d" fill-opacity="1"><g transform="translate(318.087517, 318.233723)"><g><path d="M 3.4375 -8.75 L 0.0625 -8.75 L 0.0625 -9.640625 L 7.84375 -9.640625 L 7.84375 -8.75 L 4.453125 -8.75 L 4.453125 0 L 3.4375 0 Z M 3.4375 -8.75 "/></g></g></g><g fill="#c69c6d" fill-opacity="1"><g transform="translate(329.669301, 318.233723)"><g><path d="M 5.78125 0.078125 C 4.820312 0.078125 3.957031 -0.132812 3.1875 -0.5625 C 2.414062 -0.988281 1.8125 -1.570312 1.375 -2.3125 C 0.9375 -3.050781 0.71875 -3.882812 0.71875 -4.8125 C 0.71875 -5.738281 0.9375 -6.570312 1.375 -7.3125 C 1.8125 -8.0625 2.414062 -8.648438 3.1875 -9.078125 C 3.957031 -9.503906 4.820312 -9.71875 5.78125 -9.71875 C 6.738281 -9.71875 7.597656 -9.503906 8.359375 -9.078125 C 9.128906 -8.660156 9.734375 -8.078125 10.171875 -7.328125 C 10.609375 -6.578125 10.828125 -5.738281 10.828125 -4.8125 C 10.828125 -3.882812 10.609375 -3.046875 10.171875 -2.296875 C 9.734375 -1.554688 9.128906 -0.972656 8.359375 -0.546875 C 7.597656 -0.128906 6.738281 0.078125 5.78125 0.078125 Z M 5.78125 -0.828125 C 6.539062 -0.828125 7.226562 -1 7.84375 -1.34375 C 8.457031 -1.6875 8.9375 -2.160156 9.28125 -2.765625 C 9.632812 -3.378906 9.8125 -4.0625 9.8125 -4.8125 C 9.8125 -5.570312 9.632812 -6.253906 9.28125 -6.859375 C 8.9375 -7.472656 8.457031 -7.953125 7.84375 -8.296875 C 7.226562 -8.640625 6.539062 -8.8125 5.78125 -8.8125 C 5.019531 -8.8125 4.328125 -8.640625 3.703125 -8.296875 C 3.085938 -7.953125 2.601562 -7.472656 2.25 -6.859375 C 1.894531 -6.253906 1.71875 -5.570312 1.71875 -4.8125 C 1.71875 -4.0625 1.894531 -3.378906 2.25 -2.765625 C 2.601562 -2.160156 3.085938 -1.6875 3.703125 -1.34375 C 4.328125 -1 5.019531 -0.828125 5.78125 -0.828125 Z M 5.78125 -0.828125 "/></g></g></g><g fill="#c69c6d" fill-opacity="1"><g transform="translate(344.900529, 318.233723)"><g><path d="M 4.21875 0.078125 C 3.507812 0.078125 2.828125 -0.0351562 2.171875 -0.265625 C 1.515625 -0.492188 1.003906 -0.796875 0.640625 -1.171875 L 1.046875 -1.953125 C 1.390625 -1.609375 1.847656 -1.328125 2.421875 -1.109375 C 3.003906 -0.890625 3.601562 -0.78125 4.21875 -0.78125 C 5.082031 -0.78125 5.726562 -0.9375 6.15625 -1.25 C 6.59375 -1.570312 6.8125 -1.984375 6.8125 -2.484375 C 6.8125 -2.867188 6.691406 -3.175781 6.453125 -3.40625 C 6.222656 -3.644531 5.9375 -3.820312 5.59375 -3.9375 C 5.257812 -4.0625 4.789062 -4.195312 4.1875 -4.34375 C 3.457031 -4.53125 2.875 -4.707031 2.4375 -4.875 C 2.007812 -5.050781 1.640625 -5.3125 1.328125 -5.65625 C 1.023438 -6.007812 0.875 -6.484375 0.875 -7.078125 C 0.875 -7.566406 1.003906 -8.007812 1.265625 -8.40625 C 1.523438 -8.800781 1.921875 -9.117188 2.453125 -9.359375 C 2.984375 -9.597656 3.644531 -9.71875 4.4375 -9.71875 C 4.988281 -9.71875 5.523438 -9.640625 6.046875 -9.484375 C 6.578125 -9.335938 7.035156 -9.128906 7.421875 -8.859375 L 7.078125 -8.046875 C 6.671875 -8.316406 6.238281 -8.515625 5.78125 -8.640625 C 5.320312 -8.773438 4.875 -8.84375 4.4375 -8.84375 C 3.59375 -8.84375 2.957031 -8.679688 2.53125 -8.359375 C 2.101562 -8.035156 1.890625 -7.617188 1.890625 -7.109375 C 1.890625 -6.722656 2.003906 -6.410156 2.234375 -6.171875 C 2.472656 -5.941406 2.765625 -5.765625 3.109375 -5.640625 C 3.460938 -5.515625 3.941406 -5.378906 4.546875 -5.234375 C 5.253906 -5.054688 5.820312 -4.878906 6.25 -4.703125 C 6.6875 -4.535156 7.054688 -4.28125 7.359375 -3.9375 C 7.660156 -3.59375 7.8125 -3.128906 7.8125 -2.546875 C 7.8125 -2.054688 7.679688 -1.613281 7.421875 -1.21875 C 7.160156 -0.820312 6.757812 -0.503906 6.21875 -0.265625 C 5.675781 -0.0351562 5.007812 0.078125 4.21875 0.078125 Z M 4.21875 0.078125 "/></g></g></g></svg>