<svg xmlns="http://www.w3.org/2000/svg" xmlns:xlink="http://www.w3.org/1999/xlink" width="500" zoomAndPan="magnify" viewBox="0 0 375 374.999991" height="500" preserveAspectRatio="xMidYMid meet" version="1.0"><defs><g/><clipPath id="39e47082a1"><path d="M 96.707031 53 L 278.207031 53 L 278.207031 234.65625 L 96.707031 234.65625 Z M 96.707031 53 " clip-rule="nonzero"/></clipPath></defs><g clip-path="url(#39e47082a1)"><path fill="#046499" d="M 273.058594 113.449219 C 269.71875 104.042969 264.851562 95.289062 258.605469 87.410156 C 252.429688 79.636719 245.058594 72.957031 236.707031 67.542969 C 228.207031 62.058594 218.949219 58.066406 209.179688 55.667969 C 207.90625 55.34375 206.636719 55.085938 205.402344 54.832031 C 193.671875 52.472656 181.25 52.472656 169.519531 54.832031 C 168.25 55.085938 166.980469 55.378906 165.746094 55.667969 C 155.976562 58.066406 146.714844 62.058594 138.214844 67.542969 C 129.863281 72.917969 122.527344 79.601562 116.316406 87.410156 C 110.070312 95.253906 105.203125 104.042969 101.863281 113.449219 C 98.449219 123.179688 96.707031 133.421875 96.707031 143.84375 C 96.707031 185.101562 124.523438 221.199219 164.402344 231.65625 C 168.140625 232.636719 172.027344 233.402344 175.875 233.875 C 179.652344 234.34375 183.464844 234.597656 187.28125 234.597656 C 187.351562 234.597656 187.425781 234.597656 187.496094 234.597656 C 187.570312 234.597656 187.644531 234.597656 187.714844 234.597656 C 191.527344 234.597656 195.378906 234.34375 199.117188 233.875 C 202.96875 233.363281 206.855469 232.636719 210.59375 231.65625 C 250.46875 221.199219 278.289062 185.101562 278.289062 143.84375 C 278.289062 133.421875 276.546875 123.179688 273.058594 113.449219 Z M 273.023438 143.84375 C 273.023438 147.476562 272.804688 151.035156 272.332031 154.558594 C 267.285156 158.296875 262.308594 159.425781 257.515625 159.386719 C 258.167969 157.828125 259.949219 154.160156 263.472656 149.945312 C 266.015625 146.933594 269.9375 144.246094 272.988281 142.429688 C 272.988281 142.902344 273.023438 143.371094 273.023438 143.84375 Z M 210.667969 145.40625 C 205.65625 133.605469 210.050781 119.730469 216.152344 107.890625 C 223.195312 121.257812 216.441406 131.714844 210.667969 145.40625 Z M 211.066406 91.550781 C 209.867188 90.53125 208.742188 89.441406 207.691406 88.351562 C 207.90625 87.628906 208.125 86.9375 208.34375 86.210938 C 209.867188 80.761719 210.59375 75.0625 210.339844 69.394531 C 210.230469 66.636719 209.867188 63.839844 209.289062 61.152344 C 211.140625 61.625 212.992188 62.167969 214.769531 62.785156 C 214.664062 71.539062 217.894531 77.96875 223.488281 85.265625 C 221.417969 89.042969 218.949219 92.785156 216.40625 96.707031 C 214.84375 95 213.066406 93.257812 211.066406 91.550781 Z M 227.082031 89.804688 C 228.71875 91.765625 230.460938 93.800781 232.347656 96.015625 C 244.441406 110.214844 227.84375 120.566406 227.84375 120.566406 C 227.84375 120.566406 227.882812 111.742188 219.964844 101.027344 C 222.035156 97.542969 224.140625 94.308594 225.992188 91.511719 C 226.394531 90.96875 226.757812 90.386719 227.082031 89.804688 Z M 219.019531 64.3125 C 222.46875 65.691406 225.847656 67.253906 229.042969 69.03125 C 228.644531 73.355469 227.300781 77.457031 225.414062 81.488281 C 221.019531 75.171875 219.457031 69.03125 219.019531 64.3125 Z M 227.300781 145.40625 C 230.96875 141.847656 237.289062 140.832031 243.789062 139.921875 C 243.679688 140.214844 243.535156 140.46875 243.425781 140.757812 C 239.285156 149.945312 233.074219 154.738281 228.933594 157.101562 C 222.105469 158.445312 216.769531 161.132812 216.660156 161.203125 C 216.695312 161.058594 220.910156 151.582031 227.300781 145.40625 Z M 269.535156 119.621094 C 266.230469 123.945312 260.421875 130.117188 252.722656 131.898438 C 253.847656 127.394531 255.082031 122.34375 256.71875 117.226562 C 258.605469 111.414062 261.402344 107.492188 263.726562 105.023438 C 266.121094 109.707031 268.046875 114.574219 269.535156 119.621094 Z M 248.363281 145.40625 C 249.308594 143.917969 250.144531 141.664062 250.941406 138.871094 C 253.339844 138.433594 255.664062 137.851562 257.734375 137.054688 C 263.289062 134.839844 268.046875 129.5 271.027344 125.433594 C 271.933594 129.5 272.515625 133.675781 272.804688 137.925781 C 269.5 139.742188 264.851562 142.429688 261.074219 145.117188 C 255.664062 148.929688 251.777344 156.191406 250.542969 158.699219 C 247.128906 158.082031 243.789062 157.246094 240.519531 156.699219 C 240.410156 156.699219 240.339844 156.664062 240.230469 156.664062 C 242.699219 153.867188 246.113281 148.894531 248.363281 145.40625 Z M 261.367188 100.664062 C 260.710938 101.136719 260.09375 101.679688 259.40625 102.300781 C 252.359375 110.761719 250.578125 121.039062 246.621094 132.550781 C 231.078125 133.457031 224.902344 137.597656 224.792969 137.671875 C 224.832031 137.5625 226.9375 131.859375 237.359375 122.199219 C 248.835938 111.558594 253.738281 99.574219 255.773438 92.3125 C 257.84375 94.964844 259.695312 97.757812 261.367188 100.664062 Z M 251.125 86.574219 C 248.617188 100.230469 243.644531 104.695312 243.644531 104.695312 C 238.050781 93.148438 240.738281 84.503906 243.824219 79.382812 C 246.402344 81.636719 248.835938 84.03125 251.125 86.574219 Z M 238.996094 75.496094 C 234.855469 82.722656 234.601562 91.1875 234.601562 91.1875 C 232.492188 89.480469 230.640625 87.734375 229.042969 85.992188 C 231.441406 80.507812 232.203125 75.171875 232.347656 70.957031 C 234.636719 72.375 236.851562 73.898438 238.996094 75.496094 Z M 205.546875 60.246094 C 205.691406 61.117188 205.835938 61.953125 205.945312 62.824219 C 206.710938 68.378906 206.417969 74.117188 205.183594 79.566406 C 204.855469 81.089844 204.421875 82.578125 203.949219 84.03125 C 197.777344 75.96875 194.726562 66.707031 195.851562 58.753906 C 198.71875 59.046875 201.589844 59.445312 204.421875 60.027344 C 204.785156 60.0625 205.148438 60.171875 205.546875 60.246094 Z M 191.421875 58.429688 C 189.203125 71.613281 193.960938 80.144531 201.625 89.734375 C 199.992188 93.21875 198.03125 96.523438 195.886719 99.683594 C 193.199219 103.605469 190.222656 107.238281 187.496094 111.085938 C 184.773438 107.238281 181.832031 103.605469 179.109375 99.683594 C 176.964844 96.523438 174.96875 93.21875 173.371094 89.734375 C 181.035156 80.109375 185.789062 71.613281 183.574219 58.429688 C 186.191406 58.320312 188.804688 58.320312 191.421875 58.429688 Z M 189.097656 128.519531 C 190.292969 132.078125 191.058594 135.78125 191.492188 139.558594 C 192.363281 147.113281 191.855469 154.992188 191.203125 162.984375 C 190.875 166.976562 190.476562 171.007812 190.148438 175.078125 C 189.785156 179.144531 189.457031 183.25 189.203125 187.351562 C 188.878906 192.726562 187.898438 208.777344 187.460938 221.5625 C 187.0625 208.777344 186.082031 192.761719 185.71875 187.351562 C 185.464844 183.25 185.136719 179.144531 184.773438 175.078125 C 184.410156 171.007812 184.046875 166.976562 183.722656 162.984375 C 183.066406 154.992188 182.558594 147.113281 183.429688 139.558594 C 183.867188 135.78125 184.628906 132.078125 185.828125 128.519531 C 186.300781 127.066406 186.84375 125.648438 187.425781 124.269531 C 188.078125 125.648438 188.625 127.066406 189.097656 128.519531 Z M 179.144531 58.71875 C 180.269531 66.636719 177.257812 75.898438 171.046875 83.996094 C 170.574219 82.542969 170.136719 81.054688 169.8125 79.527344 C 168.578125 74.082031 168.25 68.34375 169.050781 62.785156 C 169.15625 61.953125 169.304688 61.078125 169.449219 60.246094 C 169.8125 60.171875 170.210938 60.097656 170.574219 59.992188 C 173.40625 59.445312 176.277344 59.007812 179.144531 58.71875 Z M 164.328125 145.40625 C 158.554688 131.714844 151.800781 121.257812 158.84375 107.890625 C 164.945312 119.765625 169.339844 133.605469 164.328125 145.40625 Z M 101.972656 143.84375 C 101.972656 143.371094 101.972656 142.902344 101.972656 142.429688 C 105.023438 144.246094 108.945312 146.933594 111.488281 149.945312 C 115.011719 154.160156 116.789062 157.828125 117.445312 159.386719 C 112.648438 159.425781 107.710938 158.296875 102.625 154.558594 C 102.226562 151.035156 101.972656 147.476562 101.972656 143.84375 Z M 124.453125 158.660156 C 123.21875 156.15625 119.296875 148.894531 113.921875 145.078125 C 110.144531 142.429688 105.496094 139.742188 102.191406 137.890625 C 102.480469 133.640625 103.097656 129.464844 103.96875 125.394531 C 106.984375 129.464844 111.742188 134.800781 117.261719 137.015625 C 119.332031 137.851562 121.621094 138.398438 124.054688 138.832031 C 124.851562 141.628906 125.6875 143.882812 126.632812 145.371094 C 128.882812 148.855469 132.296875 153.832031 134.765625 156.628906 C 134.65625 156.628906 134.585938 156.664062 134.476562 156.664062 C 131.242188 157.210938 127.902344 158.042969 124.453125 158.660156 Z M 111.234375 105.058594 C 113.59375 107.527344 116.355469 111.414062 118.242188 117.261719 C 119.914062 122.382812 121.148438 127.464844 122.238281 131.933594 C 114.539062 130.117188 108.726562 123.980469 105.421875 119.65625 C 106.949219 114.574219 108.871094 109.707031 111.234375 105.058594 Z M 146.0625 157.101562 C 141.921875 154.777344 135.710938 149.945312 131.570312 140.757812 C 131.460938 140.46875 131.316406 140.175781 131.207031 139.921875 C 137.707031 140.832031 144.027344 141.8125 147.695312 145.40625 C 154.085938 151.582031 158.261719 161.058594 158.335938 161.203125 C 158.226562 161.132812 152.925781 158.445312 146.0625 157.101562 Z M 149.003906 91.550781 C 150.855469 94.34375 152.960938 97.542969 155.03125 101.0625 C 147.113281 111.777344 147.148438 120.601562 147.148438 120.601562 C 147.148438 120.601562 130.554688 110.214844 142.648438 96.050781 C 144.535156 93.835938 146.277344 91.804688 147.914062 89.84375 C 148.238281 90.386719 148.601562 90.96875 149.003906 91.550781 Z M 158.625 96.707031 C 156.085938 92.820312 153.613281 89.042969 151.542969 85.265625 C 157.101562 77.929688 160.332031 71.503906 160.261719 62.785156 C 162.078125 62.167969 163.890625 61.625 165.746094 61.152344 C 165.164062 63.875 164.835938 66.636719 164.691406 69.394531 C 164.4375 75.0625 165.164062 80.761719 166.6875 86.210938 C 166.90625 86.9375 167.125 87.664062 167.34375 88.351562 C 166.289062 89.441406 165.164062 90.53125 163.964844 91.550781 C 161.929688 93.257812 160.152344 95 158.625 96.707031 Z M 149.582031 81.488281 C 147.695312 77.457031 146.351562 73.355469 145.953125 69.03125 C 149.148438 67.253906 152.523438 65.691406 155.976562 64.3125 C 155.539062 69.070312 153.976562 75.171875 149.582031 81.488281 Z M 142.648438 70.957031 C 142.792969 75.132812 143.554688 80.507812 145.953125 85.992188 C 144.355469 87.734375 142.5 89.480469 140.394531 91.1875 C 140.394531 91.1875 140.140625 82.722656 136 75.535156 C 138.144531 73.898438 140.359375 72.375 142.648438 70.957031 Z M 131.207031 79.382812 C 134.292969 84.503906 136.945312 93.183594 131.390625 104.695312 C 131.390625 104.695312 126.414062 100.230469 123.90625 86.574219 C 126.160156 84.03125 128.59375 81.636719 131.207031 79.382812 Z M 119.1875 92.277344 C 121.21875 99.539062 126.125 111.523438 137.597656 122.164062 C 148.023438 131.824219 150.128906 137.527344 150.164062 137.636719 C 150.054688 137.5625 143.882812 133.421875 128.339844 132.515625 C 124.378906 121 122.601562 110.722656 115.554688 102.261719 C 114.902344 101.644531 114.246094 101.101562 113.59375 100.628906 C 115.300781 97.757812 117.152344 94.964844 119.1875 92.277344 Z M 103.789062 161.347656 C 106.621094 163.273438 110.363281 165.015625 114.828125 165.527344 C 125.6875 166.722656 138.363281 160.914062 149.113281 166.722656 C 159.316406 172.246094 166.144531 192.074219 156.957031 223.777344 C 129.644531 213.316406 109.707031 189.640625 103.789062 161.347656 Z M 174.460938 228.351562 C 175.550781 217.640625 176.894531 190.910156 168.757812 158.371094 C 171.15625 153.613281 176.894531 140.03125 173.261719 126.121094 C 170.9375 117.261719 166.832031 109.707031 162.511719 102.769531 C 164.980469 99.757812 167.34375 96.960938 169.59375 94.308594 C 170.136719 95.542969 170.71875 96.742188 171.335938 97.941406 C 172.027344 99.285156 172.753906 100.59375 173.550781 101.898438 C 176.203125 106.367188 179.582031 110.253906 182.378906 114.609375 C 182.847656 115.371094 183.320312 116.136719 183.792969 116.898438 C 183.539062 117.371094 183.285156 117.84375 183.03125 118.3125 C 182.632812 119.113281 182.230469 119.875 181.832031 120.710938 C 179.144531 126.304688 177.367188 132.296875 176.457031 138.46875 C 175.839844 142.683594 175.621094 146.933594 175.585938 151.109375 C 175.585938 155.285156 175.730469 159.386719 175.949219 163.492188 C 176.167969 167.558594 179.074219 191.09375 178.054688 211.757812 C 177.765625 217.386719 177.21875 223.015625 176.53125 228.644531 C 175.839844 228.570312 175.148438 228.460938 174.460938 228.351562 Z M 198.464844 228.644531 C 197.8125 223.015625 197.230469 217.386719 196.941406 211.757812 C 195.886719 191.09375 198.792969 167.558594 199.046875 163.492188 C 199.265625 159.425781 199.445312 155.285156 199.410156 151.109375 C 199.410156 146.933594 199.15625 142.71875 198.539062 138.46875 C 197.628906 132.261719 195.851562 126.304688 193.164062 120.710938 C 192.765625 119.914062 192.363281 119.113281 191.964844 118.3125 C 191.710938 117.84375 191.457031 117.371094 191.203125 116.898438 C 191.675781 116.136719 192.144531 115.371094 192.617188 114.609375 C 195.414062 110.253906 198.757812 106.367188 201.441406 101.898438 C 202.207031 100.59375 202.96875 99.285156 203.660156 97.941406 C 204.277344 96.742188 204.855469 95.542969 205.402344 94.308594 C 207.617188 96.960938 210.015625 99.757812 212.484375 102.769531 C 208.125 109.707031 204.023438 117.261719 201.734375 126.121094 C 198.101562 140.03125 203.875 153.578125 206.238281 158.371094 C 198.101562 190.910156 199.445312 217.601562 200.535156 228.351562 C 199.84375 228.460938 199.15625 228.570312 198.464844 228.644531 Z M 218.039062 223.742188 C 208.886719 192 215.679688 172.207031 225.882812 166.6875 C 236.632812 160.878906 249.308594 166.6875 260.167969 165.488281 C 264.632812 165.015625 268.339844 163.238281 271.207031 161.3125 C 265.289062 189.640625 245.351562 213.316406 218.039062 223.742188 Z M 218.039062 223.742188 " fill-opacity="1" fill-rule="nonzero"/></g><g fill="#046499" fill-opacity="1"><g transform="translate(37.248234, 297.502709)"><g><path d="M 37.3125 -12.609375 L 11 -12.609375 L 5.328125 0 L 0.140625 0 L 21.71875 -47.234375 L 26.65625 -47.234375 L 48.234375 0 L 42.984375 0 Z M 35.484375 -16.671875 L 24.15625 -42.03125 L 12.8125 -16.671875 Z M 35.484375 -16.671875 "/></g></g></g><g fill="#046499" fill-opacity="1"><g transform="translate(85.616464, 297.502709)"><g><path d="M 39.9375 0 L 29.140625 -15.1875 C 27.929688 -15.050781 26.675781 -14.984375 25.375 -14.984375 L 12.6875 -14.984375 L 12.6875 0 L 7.6875 0 L 7.6875 -47.234375 L 25.375 -47.234375 C 31.394531 -47.234375 36.113281 -45.789062 39.53125 -42.90625 C 42.957031 -40.03125 44.671875 -36.070312 44.671875 -31.03125 C 44.671875 -27.34375 43.734375 -24.226562 41.859375 -21.6875 C 39.992188 -19.144531 37.332031 -17.3125 33.875 -16.1875 L 45.40625 0 Z M 25.234375 -19.234375 C 29.910156 -19.234375 33.484375 -20.265625 35.953125 -22.328125 C 38.429688 -24.398438 39.671875 -27.300781 39.671875 -31.03125 C 39.671875 -34.851562 38.429688 -37.785156 35.953125 -39.828125 C 33.484375 -41.878906 29.910156 -42.90625 25.234375 -42.90625 L 12.6875 -42.90625 L 12.6875 -19.234375 Z M 25.234375 -19.234375 "/></g></g></g><g fill="#046499" fill-opacity="1"><g transform="translate(134.389441, 297.502709)"><g><path d="M 7.6875 -47.234375 L 12.6875 -47.234375 L 12.6875 0 L 7.6875 0 Z M 7.6875 -47.234375 "/></g></g></g><g fill="#046499" fill-opacity="1"><g transform="translate(154.762117, 297.502709)"><g/></g></g><g fill="#046499" fill-opacity="1"><g transform="translate(172.436411, 297.502709)"><g><path d="M 56.734375 -47.234375 L 56.734375 0 L 51.953125 0 L 51.953125 -37.78125 L 33.390625 -6 L 31.03125 -6 L 12.484375 -37.578125 L 12.484375 0 L 7.6875 0 L 7.6875 -47.234375 L 11.8125 -47.234375 L 32.3125 -12.21875 L 52.625 -47.234375 Z M 56.734375 -47.234375 "/></g></g></g><g fill="#046499" fill-opacity="1"><g transform="translate(236.85991, 297.502709)"><g><path d="M 41.09375 -4.3125 L 41.09375 0 L 7.6875 0 L 7.6875 -47.234375 L 40.078125 -47.234375 L 40.078125 -42.90625 L 12.6875 -42.90625 L 12.6875 -26.109375 L 37.109375 -26.109375 L 37.109375 -21.859375 L 12.6875 -21.859375 L 12.6875 -4.3125 Z M 41.09375 -4.3125 "/></g></g></g><g fill="#046499" fill-opacity="1"><g transform="translate(281.990091, 297.502709)"><g><path d="M 7.6875 -47.234375 L 26.921875 -47.234375 C 31.910156 -47.234375 36.316406 -46.226562 40.140625 -44.21875 C 43.960938 -42.21875 46.929688 -39.429688 49.046875 -35.859375 C 51.160156 -32.285156 52.21875 -28.203125 52.21875 -23.609375 C 52.21875 -19.023438 51.160156 -14.941406 49.046875 -11.359375 C 46.929688 -7.785156 43.960938 -5 40.140625 -3 C 36.316406 -1 31.910156 0 26.921875 0 L 7.6875 0 Z M 26.65625 -4.3125 C 30.789062 -4.3125 34.410156 -5.132812 37.515625 -6.78125 C 40.617188 -8.425781 43.023438 -10.695312 44.734375 -13.59375 C 46.441406 -16.5 47.296875 -19.835938 47.296875 -23.609375 C 47.296875 -27.390625 46.441406 -30.726562 44.734375 -33.625 C 43.023438 -36.53125 40.617188 -38.800781 37.515625 -40.4375 C 34.410156 -42.082031 30.789062 -42.90625 26.65625 -42.90625 L 12.6875 -42.90625 L 12.6875 -4.3125 Z M 26.65625 -4.3125 "/></g></g></g><g fill="#046499" fill-opacity="1"><g transform="translate(21.601818, 318.233723)"><g><path d="M 5.171875 -9.640625 C 6.398438 -9.640625 7.363281 -9.34375 8.0625 -8.75 C 8.757812 -8.164062 9.109375 -7.359375 9.109375 -6.328125 C 9.109375 -5.304688 8.757812 -4.503906 8.0625 -3.921875 C 7.363281 -3.335938 6.398438 -3.046875 5.171875 -3.046875 L 2.59375 -3.046875 L 2.59375 0 L 1.5625 0 L 1.5625 -9.640625 Z M 5.140625 -3.9375 C 6.097656 -3.9375 6.828125 -4.144531 7.328125 -4.5625 C 7.835938 -4.976562 8.09375 -5.566406 8.09375 -6.328125 C 8.09375 -7.109375 7.835938 -7.707031 7.328125 -8.125 C 6.828125 -8.539062 6.097656 -8.75 5.140625 -8.75 L 2.59375 -8.75 L 2.59375 -3.9375 Z M 5.140625 -3.9375 "/></g></g></g><g fill="#046499" fill-opacity="1"><g transform="translate(35.166702, 318.233723)"><g><path d="M 8.15625 0 L 5.953125 -3.09375 C 5.703125 -3.070312 5.441406 -3.0625 5.171875 -3.0625 L 2.59375 -3.0625 L 2.59375 0 L 1.5625 0 L 1.5625 -9.640625 L 5.171875 -9.640625 C 6.398438 -9.640625 7.363281 -9.34375 8.0625 -8.75 C 8.757812 -8.164062 9.109375 -7.359375 9.109375 -6.328125 C 9.109375 -5.578125 8.914062 -4.941406 8.53125 -4.421875 C 8.15625 -3.898438 7.613281 -3.523438 6.90625 -3.296875 L 9.265625 0 Z M 5.140625 -3.921875 C 6.097656 -3.921875 6.828125 -4.128906 7.328125 -4.546875 C 7.835938 -4.972656 8.09375 -5.566406 8.09375 -6.328125 C 8.09375 -7.109375 7.835938 -7.707031 7.328125 -8.125 C 6.828125 -8.539062 6.097656 -8.75 5.140625 -8.75 L 2.59375 -8.75 L 2.59375 -3.921875 Z M 5.140625 -3.921875 "/></g></g></g><g fill="#046499" fill-opacity="1"><g transform="translate(48.80044, 318.233723)"><g><path d="M 8.390625 -0.875 L 8.390625 0 L 1.5625 0 L 1.5625 -9.640625 L 8.171875 -9.640625 L 8.171875 -8.75 L 2.59375 -8.75 L 2.59375 -5.328125 L 7.578125 -5.328125 L 7.578125 -4.453125 L 2.59375 -4.453125 L 2.59375 -0.875 Z M 8.390625 -0.875 "/></g></g></g><g fill="#046499" fill-opacity="1"><g transform="translate(61.690527, 318.233723)"><g><path d="M 4.21875 0.078125 C 3.507812 0.078125 2.828125 -0.0351562 2.171875 -0.265625 C 1.515625 -0.492188 1.003906 -0.796875 0.640625 -1.171875 L 1.046875 -1.953125 C 1.390625 -1.609375 1.847656 -1.328125 2.421875 -1.109375 C 3.003906 -0.890625 3.601562 -0.78125 4.21875 -0.78125 C 5.082031 -0.78125 5.726562 -0.9375 6.15625 -1.25 C 6.59375 -1.570312 6.8125 -1.984375 6.8125 -2.484375 C 6.8125 -2.867188 6.691406 -3.175781 6.453125 -3.40625 C 6.222656 -3.644531 5.9375 -3.820312 5.59375 -3.9375 C 5.257812 -4.0625 4.789062 -4.195312 4.1875 -4.34375 C 3.457031 -4.53125 2.875 -4.707031 2.4375 -4.875 C 2.007812 -5.050781 1.640625 -5.3125 1.328125 -5.65625 C 1.023438 -6.007812 0.875 -6.484375 0.875 -7.078125 C 0.875 -7.566406 1.003906 -8.007812 1.265625 -8.40625 C 1.523438 -8.800781 1.921875 -9.117188 2.453125 -9.359375 C 2.984375 -9.597656 3.644531 -9.71875 4.4375 -9.71875 C 4.988281 -9.71875 5.523438 -9.640625 6.046875 -9.484375 C 6.578125 -9.335938 7.035156 -9.128906 7.421875 -8.859375 L 7.078125 -8.046875 C 6.671875 -8.316406 6.238281 -8.515625 5.78125 -8.640625 C 5.320312 -8.773438 4.875 -8.84375 4.4375 -8.84375 C 3.59375 -8.84375 2.957031 -8.679688 2.53125 -8.359375 C 2.101562 -8.035156 1.890625 -7.617188 1.890625 -7.109375 C 1.890625 -6.722656 2.003906 -6.410156 2.234375 -6.171875 C 2.472656 -5.941406 2.765625 -5.765625 3.109375 -5.640625 C 3.460938 -5.515625 3.941406 -5.378906 4.546875 -5.234375 C 5.253906 -5.054688 5.820312 -4.878906 6.25 -4.703125 C 6.6875 -4.535156 7.054688 -4.28125 7.359375 -3.9375 C 7.660156 -3.59375 7.8125 -3.128906 7.8125 -2.546875 C 7.8125 -2.054688 7.679688 -1.613281 7.421875 -1.21875 C 7.160156 -0.820312 6.757812 -0.503906 6.21875 -0.265625 C 5.675781 -0.0351562 5.007812 0.078125 4.21875 0.078125 Z M 4.21875 0.078125 "/></g></g></g><g fill="#046499" fill-opacity="1"><g transform="translate(73.836952, 318.233723)"><g><path d="M 5.75 0.078125 C 4.800781 0.078125 3.941406 -0.128906 3.171875 -0.546875 C 2.410156 -0.972656 1.8125 -1.554688 1.375 -2.296875 C 0.9375 -3.046875 0.71875 -3.882812 0.71875 -4.8125 C 0.71875 -5.738281 0.9375 -6.578125 1.375 -7.328125 C 1.8125 -8.078125 2.414062 -8.660156 3.1875 -9.078125 C 3.957031 -9.503906 4.816406 -9.71875 5.765625 -9.71875 C 6.484375 -9.71875 7.144531 -9.597656 7.75 -9.359375 C 8.351562 -9.117188 8.867188 -8.769531 9.296875 -8.3125 L 8.640625 -7.671875 C 7.890625 -8.429688 6.941406 -8.8125 5.796875 -8.8125 C 5.035156 -8.8125 4.34375 -8.632812 3.71875 -8.28125 C 3.09375 -7.9375 2.601562 -7.460938 2.25 -6.859375 C 1.894531 -6.253906 1.71875 -5.570312 1.71875 -4.8125 C 1.71875 -4.0625 1.894531 -3.382812 2.25 -2.78125 C 2.601562 -2.175781 3.09375 -1.695312 3.71875 -1.34375 C 4.34375 -1 5.035156 -0.828125 5.796875 -0.828125 C 6.953125 -0.828125 7.898438 -1.210938 8.640625 -1.984375 L 9.296875 -1.328125 C 8.867188 -0.867188 8.347656 -0.519531 7.734375 -0.28125 C 7.128906 -0.0390625 6.46875 0.078125 5.75 0.078125 Z M 5.75 0.078125 "/></g></g></g><g fill="#046499" fill-opacity="1"><g transform="translate(87.41562, 318.233723)"><g><path d="M 8.15625 0 L 5.953125 -3.09375 C 5.703125 -3.070312 5.441406 -3.0625 5.171875 -3.0625 L 2.59375 -3.0625 L 2.59375 0 L 1.5625 0 L 1.5625 -9.640625 L 5.171875 -9.640625 C 6.398438 -9.640625 7.363281 -9.34375 8.0625 -8.75 C 8.757812 -8.164062 9.109375 -7.359375 9.109375 -6.328125 C 9.109375 -5.578125 8.914062 -4.941406 8.53125 -4.421875 C 8.15625 -3.898438 7.613281 -3.523438 6.90625 -3.296875 L 9.265625 0 Z M 5.140625 -3.921875 C 6.097656 -3.921875 6.828125 -4.128906 7.328125 -4.546875 C 7.835938 -4.972656 8.09375 -5.566406 8.09375 -6.328125 C 8.09375 -7.109375 7.835938 -7.707031 7.328125 -8.125 C 6.828125 -8.539062 6.097656 -8.75 5.140625 -8.75 L 2.59375 -8.75 L 2.59375 -3.921875 Z M 5.140625 -3.921875 "/></g></g></g><g fill="#046499" fill-opacity="1"><g transform="translate(101.04936, 318.233723)"><g><path d="M 1.5625 -9.640625 L 2.59375 -9.640625 L 2.59375 0 L 1.5625 0 Z M 1.5625 -9.640625 "/></g></g></g><g fill="#046499" fill-opacity="1"><g transform="translate(108.885309, 318.233723)"><g><path d="M 5.75 0.078125 C 4.800781 0.078125 3.941406 -0.128906 3.171875 -0.546875 C 2.410156 -0.972656 1.8125 -1.554688 1.375 -2.296875 C 0.9375 -3.046875 0.71875 -3.882812 0.71875 -4.8125 C 0.71875 -5.738281 0.9375 -6.578125 1.375 -7.328125 C 1.8125 -8.078125 2.414062 -8.660156 3.1875 -9.078125 C 3.957031 -9.503906 4.816406 -9.71875 5.765625 -9.71875 C 6.484375 -9.71875 7.144531 -9.597656 7.75 -9.359375 C 8.351562 -9.117188 8.867188 -8.769531 9.296875 -8.3125 L 8.640625 -7.671875 C 7.890625 -8.429688 6.941406 -8.8125 5.796875 -8.8125 C 5.035156 -8.8125 4.34375 -8.632812 3.71875 -8.28125 C 3.09375 -7.9375 2.601562 -7.460938 2.25 -6.859375 C 1.894531 -6.253906 1.71875 -5.570312 1.71875 -4.8125 C 1.71875 -4.0625 1.894531 -3.382812 2.25 -2.78125 C 2.601562 -2.175781 3.09375 -1.695312 3.71875 -1.34375 C 4.34375 -1 5.035156 -0.828125 5.796875 -0.828125 C 6.953125 -0.828125 7.898438 -1.210938 8.640625 -1.984375 L 9.296875 -1.328125 C 8.867188 -0.867188 8.347656 -0.519531 7.734375 -0.28125 C 7.128906 -0.0390625 6.46875 0.078125 5.75 0.078125 Z M 5.25 3.03125 C 4.800781 3.03125 4.414062 2.925781 4.09375 2.71875 L 4.328125 2.1875 C 4.597656 2.363281 4.898438 2.453125 5.234375 2.453125 C 5.515625 2.453125 5.726562 2.394531 5.875 2.28125 C 6.019531 2.175781 6.09375 2.015625 6.09375 1.796875 C 6.09375 1.609375 6.019531 1.457031 5.875 1.34375 C 5.738281 1.226562 5.523438 1.171875 5.234375 1.171875 L 4.921875 1.171875 L 5.25 -0.078125 L 5.84375 -0.078125 L 5.640625 0.71875 C 6.015625 0.75 6.300781 0.863281 6.5 1.0625 C 6.707031 1.257812 6.8125 1.515625 6.8125 1.828125 C 6.8125 2.191406 6.664062 2.484375 6.375 2.703125 C 6.09375 2.921875 5.71875 3.03125 5.25 3.03125 Z M 5.25 3.03125 "/></g></g></g><g fill="#046499" fill-opacity="1"><g transform="translate(122.463977, 318.233723)"><g><path d="M 7.609375 -2.578125 L 2.25 -2.578125 L 1.09375 0 L 0.03125 0 L 4.4375 -9.640625 L 5.4375 -9.640625 L 9.84375 0 L 8.765625 0 Z M 7.234375 -3.40625 L 4.921875 -8.578125 L 2.609375 -3.40625 Z M 5.890625 -10.5 C 5.671875 -10.5 5.476562 -10.546875 5.3125 -10.640625 C 5.15625 -10.742188 4.976562 -10.878906 4.78125 -11.046875 C 4.613281 -11.191406 4.484375 -11.289062 4.390625 -11.34375 C 4.296875 -11.40625 4.191406 -11.4375 4.078125 -11.4375 C 3.867188 -11.4375 3.695312 -11.359375 3.5625 -11.203125 C 3.4375 -11.046875 3.367188 -10.832031 3.359375 -10.5625 L 2.78125 -10.5625 C 2.789062 -11.019531 2.90625 -11.382812 3.125 -11.65625 C 3.351562 -11.9375 3.648438 -12.078125 4.015625 -12.078125 C 4.222656 -12.078125 4.40625 -12.03125 4.5625 -11.9375 C 4.726562 -11.84375 4.914062 -11.703125 5.125 -11.515625 C 5.269531 -11.390625 5.394531 -11.296875 5.5 -11.234375 C 5.601562 -11.171875 5.707031 -11.140625 5.8125 -11.140625 C 6.019531 -11.140625 6.1875 -11.210938 6.3125 -11.359375 C 6.4375 -11.515625 6.507812 -11.722656 6.53125 -11.984375 L 7.125 -11.984375 C 7.101562 -11.535156 6.984375 -11.175781 6.765625 -10.90625 C 6.546875 -10.632812 6.253906 -10.5 5.890625 -10.5 Z M 5.890625 -10.5 "/></g></g></g><g fill="#046499" fill-opacity="1"><g transform="translate(136.0151, 318.233723)"><g><path d="M 5.78125 0.078125 C 4.820312 0.078125 3.957031 -0.132812 3.1875 -0.5625 C 2.414062 -0.988281 1.8125 -1.570312 1.375 -2.3125 C 0.9375 -3.050781 0.71875 -3.882812 0.71875 -4.8125 C 0.71875 -5.738281 0.9375 -6.570312 1.375 -7.3125 C 1.8125 -8.0625 2.414062 -8.648438 3.1875 -9.078125 C 3.957031 -9.503906 4.820312 -9.71875 5.78125 -9.71875 C 6.738281 -9.71875 7.597656 -9.503906 8.359375 -9.078125 C 9.128906 -8.660156 9.734375 -8.078125 10.171875 -7.328125 C 10.609375 -6.578125 10.828125 -5.738281 10.828125 -4.8125 C 10.828125 -3.882812 10.609375 -3.046875 10.171875 -2.296875 C 9.734375 -1.554688 9.128906 -0.972656 8.359375 -0.546875 C 7.597656 -0.128906 6.738281 0.078125 5.78125 0.078125 Z M 5.78125 -0.828125 C 6.539062 -0.828125 7.226562 -1 7.84375 -1.34375 C 8.457031 -1.6875 8.9375 -2.160156 9.28125 -2.765625 C 9.632812 -3.378906 9.8125 -4.0625 9.8125 -4.8125 C 9.8125 -5.570312 9.632812 -6.253906 9.28125 -6.859375 C 8.9375 -7.472656 8.457031 -7.953125 7.84375 -8.296875 C 7.226562 -8.640625 6.539062 -8.8125 5.78125 -8.8125 C 5.019531 -8.8125 4.328125 -8.640625 3.703125 -8.296875 C 3.085938 -7.953125 2.601562 -7.472656 2.25 -6.859375 C 1.894531 -6.253906 1.71875 -5.570312 1.71875 -4.8125 C 1.71875 -4.0625 1.894531 -3.378906 2.25 -2.765625 C 2.601562 -2.160156 3.085938 -1.6875 3.703125 -1.34375 C 4.328125 -1 5.019531 -0.828125 5.78125 -0.828125 Z M 5.78125 -0.828125 "/></g></g></g><g fill="#046499" fill-opacity="1"><g transform="translate(151.246337, 318.233723)"><g/></g></g><g fill="#046499" fill-opacity="1"><g transform="translate(158.531435, 318.233723)"><g><path d="M 1.5625 -9.640625 L 5.5 -9.640625 C 6.507812 -9.640625 7.40625 -9.429688 8.1875 -9.015625 C 8.96875 -8.609375 9.570312 -8.039062 10 -7.3125 C 10.4375 -6.582031 10.65625 -5.75 10.65625 -4.8125 C 10.65625 -3.875 10.4375 -3.039062 10 -2.3125 C 9.570312 -1.582031 8.96875 -1.015625 8.1875 -0.609375 C 7.40625 -0.203125 6.507812 0 5.5 0 L 1.5625 0 Z M 5.4375 -0.875 C 6.28125 -0.875 7.019531 -1.039062 7.65625 -1.375 C 8.289062 -1.71875 8.78125 -2.179688 9.125 -2.765625 C 9.476562 -3.359375 9.65625 -4.039062 9.65625 -4.8125 C 9.65625 -5.582031 9.476562 -6.265625 9.125 -6.859375 C 8.78125 -7.453125 8.289062 -7.914062 7.65625 -8.25 C 7.019531 -8.582031 6.28125 -8.75 5.4375 -8.75 L 2.59375 -8.75 L 2.59375 -0.875 Z M 5.4375 -0.875 "/></g></g></g><g fill="#046499" fill-opacity="1"><g transform="translate(173.583629, 318.233723)"><g><path d="M 8.390625 -0.875 L 8.390625 0 L 1.5625 0 L 1.5625 -9.640625 L 8.171875 -9.640625 L 8.171875 -8.75 L 2.59375 -8.75 L 2.59375 -5.328125 L 7.578125 -5.328125 L 7.578125 -4.453125 L 2.59375 -4.453125 L 2.59375 -0.875 Z M 8.390625 -0.875 "/></g></g></g><g fill="#046499" fill-opacity="1"><g transform="translate(186.473711, 318.233723)"><g/></g></g><g fill="#046499" fill-opacity="1"><g transform="translate(193.758801, 318.233723)"><g><path d="M 11.578125 -9.640625 L 11.578125 0 L 10.59375 0 L 10.59375 -7.703125 L 6.8125 -1.21875 L 6.328125 -1.21875 L 2.546875 -7.671875 L 2.546875 0 L 1.5625 0 L 1.5625 -9.640625 L 2.40625 -9.640625 L 6.59375 -2.484375 L 10.734375 -9.640625 Z M 11.578125 -9.640625 "/></g></g></g><g fill="#046499" fill-opacity="1"><g transform="translate(210.587526, 318.233723)"><g><path d="M 8.390625 -0.875 L 8.390625 0 L 1.5625 0 L 1.5625 -9.640625 L 8.171875 -9.640625 L 8.171875 -8.75 L 2.59375 -8.75 L 2.59375 -5.328125 L 7.578125 -5.328125 L 7.578125 -4.453125 L 2.59375 -4.453125 L 2.59375 -0.875 Z M 8.390625 -0.875 "/></g></g></g><g fill="#046499" fill-opacity="1"><g transform="translate(223.477609, 318.233723)"><g><path d="M 1.5625 -9.640625 L 5.5 -9.640625 C 6.507812 -9.640625 7.40625 -9.429688 8.1875 -9.015625 C 8.96875 -8.609375 9.570312 -8.039062 10 -7.3125 C 10.4375 -6.582031 10.65625 -5.75 10.65625 -4.8125 C 10.65625 -3.875 10.4375 -3.039062 10 -2.3125 C 9.570312 -1.582031 8.96875 -1.015625 8.1875 -0.609375 C 7.40625 -0.203125 6.507812 0 5.5 0 L 1.5625 0 Z M 5.4375 -0.875 C 6.28125 -0.875 7.019531 -1.039062 7.65625 -1.375 C 8.289062 -1.71875 8.78125 -2.179688 9.125 -2.765625 C 9.476562 -3.359375 9.65625 -4.039062 9.65625 -4.8125 C 9.65625 -5.582031 9.476562 -6.265625 9.125 -6.859375 C 8.78125 -7.453125 8.289062 -7.914062 7.65625 -8.25 C 7.019531 -8.582031 6.28125 -8.75 5.4375 -8.75 L 2.59375 -8.75 L 2.59375 -0.875 Z M 5.4375 -0.875 "/></g></g></g><g fill="#046499" fill-opacity="1"><g transform="translate(238.529802, 318.233723)"><g><path d="M 1.5625 -9.640625 L 2.59375 -9.640625 L 2.59375 0 L 1.5625 0 Z M 1.5625 -9.640625 "/></g></g></g><g fill="#046499" fill-opacity="1"><g transform="translate(246.365743, 318.233723)"><g><path d="M 5.75 0.078125 C 4.800781 0.078125 3.941406 -0.128906 3.171875 -0.546875 C 2.410156 -0.972656 1.8125 -1.554688 1.375 -2.296875 C 0.9375 -3.046875 0.71875 -3.882812 0.71875 -4.8125 C 0.71875 -5.738281 0.9375 -6.578125 1.375 -7.328125 C 1.8125 -8.078125 2.414062 -8.660156 3.1875 -9.078125 C 3.957031 -9.503906 4.816406 -9.71875 5.765625 -9.71875 C 6.484375 -9.71875 7.144531 -9.597656 7.75 -9.359375 C 8.351562 -9.117188 8.867188 -8.769531 9.296875 -8.3125 L 8.640625 -7.671875 C 7.890625 -8.429688 6.941406 -8.8125 5.796875 -8.8125 C 5.035156 -8.8125 4.34375 -8.632812 3.71875 -8.28125 C 3.09375 -7.9375 2.601562 -7.460938 2.25 -6.859375 C 1.894531 -6.253906 1.71875 -5.570312 1.71875 -4.8125 C 1.71875 -4.0625 1.894531 -3.382812 2.25 -2.78125 C 2.601562 -2.175781 3.09375 -1.695312 3.71875 -1.34375 C 4.34375 -1 5.035156 -0.828125 5.796875 -0.828125 C 6.953125 -0.828125 7.898438 -1.210938 8.640625 -1.984375 L 9.296875 -1.328125 C 8.867188 -0.867188 8.347656 -0.519531 7.734375 -0.28125 C 7.128906 -0.0390625 6.46875 0.078125 5.75 0.078125 Z M 5.75 0.078125 "/></g></g></g><g fill="#046499" fill-opacity="1"><g transform="translate(259.944402, 318.233723)"><g><path d="M 7.609375 -2.578125 L 2.25 -2.578125 L 1.09375 0 L 0.03125 0 L 4.4375 -9.640625 L 5.4375 -9.640625 L 9.84375 0 L 8.765625 0 Z M 7.234375 -3.40625 L 4.921875 -8.578125 L 2.609375 -3.40625 Z M 7.234375 -3.40625 "/></g></g></g><g fill="#046499" fill-opacity="1"><g transform="translate(273.495516, 318.233723)"><g><path d="M 11.578125 -9.640625 L 11.578125 0 L 10.59375 0 L 10.59375 -7.703125 L 6.8125 -1.21875 L 6.328125 -1.21875 L 2.546875 -7.671875 L 2.546875 0 L 1.5625 0 L 1.5625 -9.640625 L 2.40625 -9.640625 L 6.59375 -2.484375 L 10.734375 -9.640625 Z M 11.578125 -9.640625 "/></g></g></g><g fill="#046499" fill-opacity="1"><g transform="translate(290.32424, 318.233723)"><g><path d="M 8.390625 -0.875 L 8.390625 0 L 1.5625 0 L 1.5625 -9.640625 L 8.171875 -9.640625 L 8.171875 -8.75 L 2.59375 -8.75 L 2.59375 -5.328125 L 7.578125 -5.328125 L 7.578125 -4.453125 L 2.59375 -4.453125 L 2.59375 -0.875 Z M 8.390625 -0.875 "/></g></g></g><g fill="#046499" fill-opacity="1"><g transform="translate(303.214323, 318.233723)"><g><path d="M 9.625 -9.640625 L 9.625 0 L 8.78125 0 L 2.59375 -7.8125 L 2.59375 0 L 1.5625 0 L 1.5625 -9.640625 L 2.40625 -9.640625 L 8.625 -1.8125 L 8.625 -9.640625 Z M 9.625 -9.640625 "/></g></g></g><g fill="#046499" fill-opacity="1"><g transform="translate(318.087517, 318.233723)"><g><path d="M 3.4375 -8.75 L 0.0625 -8.75 L 0.0625 -9.640625 L 7.84375 -9.640625 L 7.84375 -8.75 L 4.453125 -8.75 L 4.453125 0 L 3.4375 0 Z M 3.4375 -8.75 "/></g></g></g><g fill="#046499" fill-opacity="1"><g transform="translate(329.669301, 318.233723)"><g><path d="M 5.78125 0.078125 C 4.820312 0.078125 3.957031 -0.132812 3.1875 -0.5625 C 2.414062 -0.988281 1.8125 -1.570312 1.375 -2.3125 C 0.9375 -3.050781 0.71875 -3.882812 0.71875 -4.8125 C 0.71875 -5.738281 0.9375 -6.570312 1.375 -7.3125 C 1.8125 -8.0625 2.414062 -8.648438 3.1875 -9.078125 C 3.957031 -9.503906 4.820312 -9.71875 5.78125 -9.71875 C 6.738281 -9.71875 7.597656 -9.503906 8.359375 -9.078125 C 9.128906 -8.660156 9.734375 -8.078125 10.171875 -7.328125 C 10.609375 -6.578125 10.828125 -5.738281 10.828125 -4.8125 C 10.828125 -3.882812 10.609375 -3.046875 10.171875 -2.296875 C 9.734375 -1.554688 9.128906 -0.972656 8.359375 -0.546875 C 7.597656 -0.128906 6.738281 0.078125 5.78125 0.078125 Z M 5.78125 -0.828125 C 6.539062 -0.828125 7.226562 -1 7.84375 -1.34375 C 8.457031 -1.6875 8.9375 -2.160156 9.28125 -2.765625 C 9.632812 -3.378906 9.8125 -4.0625 9.8125 -4.8125 C 9.8125 -5.570312 9.632812 -6.253906 9.28125 -6.859375 C 8.9375 -7.472656 8.457031 -7.953125 7.84375 -8.296875 C 7.226562 -8.640625 6.539062 -8.8125 5.78125 -8.8125 C 5.019531 -8.8125 4.328125 -8.640625 3.703125 -8.296875 C 3.085938 -7.953125 2.601562 -7.472656 2.25 -6.859375 C 1.894531 -6.253906 1.71875 -5.570312 1.71875 -4.8125 C 1.71875 -4.0625 1.894531 -3.378906 2.25 -2.765625 C 2.601562 -2.160156 3.085938 -1.6875 3.703125 -1.34375 C 4.328125 -1 5.019531 -0.828125 5.78125 -0.828125 Z M 5.78125 -0.828125 "/></g></g></g><g fill="#046499" fill-opacity="1"><g transform="translate(344.900529, 318.233723)"><g><path d="M 4.21875 0.078125 C 3.507812 0.078125 2.828125 -0.0351562 2.171875 -0.265625 C 1.515625 -0.492188 1.003906 -0.796875 0.640625 -1.171875 L 1.046875 -1.953125 C 1.390625 -1.609375 1.847656 -1.328125 2.421875 -1.109375 C 3.003906 -0.890625 3.601562 -0.78125 4.21875 -0.78125 C 5.082031 -0.78125 5.726562 -0.9375 6.15625 -1.25 C 6.59375 -1.570312 6.8125 -1.984375 6.8125 -2.484375 C 6.8125 -2.867188 6.691406 -3.175781 6.453125 -3.40625 C 6.222656 -3.644531 5.9375 -3.820312 5.59375 -3.9375 C 5.257812 -4.0625 4.789062 -4.195312 4.1875 -4.34375 C 3.457031 -4.53125 2.875 -4.707031 2.4375 -4.875 C 2.007812 -5.050781 1.640625 -5.3125 1.328125 -5.65625 C 1.023438 -6.007812 0.875 -6.484375 0.875 -7.078125 C 0.875 -7.566406 1.003906 -8.007812 1.265625 -8.40625 C 1.523438 -8.800781 1.921875 -9.117188 2.453125 -9.359375 C 2.984375 -9.597656 3.644531 -9.71875 4.4375 -9.71875 C 4.988281 -9.71875 5.523438 -9.640625 6.046875 -9.484375 C 6.578125 -9.335938 7.035156 -9.128906 7.421875 -8.859375 L 7.078125 -8.046875 C 6.671875 -8.316406 6.238281 -8.515625 5.78125 -8.640625 C 5.320312 -8.773438 4.875 -8.84375 4.4375 -8.84375 C 3.59375 -8.84375 2.957031 -8.679688 2.53125 -8.359375 C 2.101562 -8.035156 1.890625 -7.617188 1.890625 -7.109375 C 1.890625 -6.722656 2.003906 -6.410156 2.234375 -6.171875 C 2.472656 -5.941406 2.765625 -5.765625 3.109375 -5.640625 C 3.460938 -5.515625 3.941406 -5.378906 4.546875 -5.234375 C 5.253906 -5.054688 5.820312 -4.878906 6.25 -4.703125 C 6.6875 -4.535156 7.054688 -4.28125 7.359375 -3.9375 C 7.660156 -3.59375 7.8125 -3.128906 7.8125 -2.546875 C 7.8125 -2.054688 7.679688 -1.613281 7.421875 -1.21875 C 7.160156 -0.820312 6.757812 -0.503906 6.21875 -0.265625 C 5.675781 -0.0351562 5.007812 0.078125 4.21875 0.078125 Z M 4.21875 0.078125 "/></g></g></g></svg>